<?xml version="1.0" encoding="utf-8"?>
<!-- Generator: Adobe Illustrator 24.1.1, SVG Export Plug-In . SVG Version: 6.00 Build 0)  -->
<svg version="1.1" id="Capa_1" xmlns="http://www.w3.org/2000/svg" xmlns:xlink="http://www.w3.org/1999/xlink" x="0px" y="0px"
	 width="136.6px" height="184.4px" viewBox="0 0 136.6 184.4" style="enable-background:new 0 0 136.6 184.4;" xml:space="preserve"
	>
<style type="text/css">
	.st0{fill:#FFFFFF;stroke:#FFFFFF;stroke-miterlimit:10;}
	.st1{fill:#00FFFF;}
	.st2{fill:#FF4FC6;}
</style>
<g id="Background">
</g>
<path class="st0" d="M30,90.9L30,90.9c-4.3,0-7.9-3.5-7.9-7.9l0,0c0-4.3,3.5-7.9,7.9-7.9l0,0c4.3,0,7.9,3.5,7.9,7.9l0,0
	C37.9,87.4,34.3,90.9,30,90.9z"/>
<g>
	<path class="st0" d="M56.1,90.9L56.1,90.9c-4.3,0-7.9-3.5-7.9-7.9l0,0c0-4.3,3.5-7.9,7.9-7.9l0,0c4.3,0,7.9,3.5,7.9,7.9l0,0
		C64,87.4,60.4,90.9,56.1,90.9z"/>
</g>
<g>
	<path class="st0" d="M82.2,90.9L82.2,90.9c-4.3,0-7.9-3.5-7.9-7.9l0,0c0-4.3,3.5-7.9,7.9-7.9l0,0c4.3,0,7.9,3.5,7.9,7.9l0,0
		C90,87.4,86.5,90.9,82.2,90.9z"/>
</g>
<g>
	<path class="st0" d="M108.2,90.9L108.2,90.9c-4.3,0-7.9-3.5-7.9-7.9l0,0c0-4.3,3.5-7.9,7.9-7.9l0,0c4.3,0,7.9,3.5,7.9,7.9l0,0
		C116.1,87.4,112.6,90.9,108.2,90.9z"/>
</g>
<g>
	<path class="st0" d="M30,116.4L30,116.4c-4.3,0-7.9-3.5-7.9-7.9l0,0c0-4.3,3.5-7.9,7.9-7.9l0,0c4.3,0,7.9,3.5,7.9,7.9l0,0
		C37.9,112.9,34.3,116.4,30,116.4z"/>
</g>
<g>
	<path class="st0" d="M56.1,116.4L56.1,116.4c-4.3,0-7.9-3.5-7.9-7.9l0,0c0-4.3,3.5-7.9,7.9-7.9l0,0c4.3,0,7.9,3.5,7.9,7.9l0,0
		C64,112.9,60.4,116.5,56.1,116.4z"/>
</g>
<g>
	<path class="st0" d="M82.1,116.5L82.1,116.5c-4.3,0-7.9-3.5-7.9-7.9l0,0c0-4.3,3.5-7.9,7.9-7.9l0,0c4.3,0,7.9,3.5,7.9,7.9l0,0
		C90,112.9,86.5,116.5,82.1,116.5z"/>
</g>
<g>
	<path class="st0" d="M30,142.2L30,142.2c-4.3,0-7.9-3.5-7.9-7.9l0,0c0-4.3,3.5-7.9,7.9-7.9l0,0c4.3,0,7.9,3.5,7.9,7.9l0,0
		C37.9,138.7,34.3,142.2,30,142.2z"/>
</g>
<g>
	<path class="st0" d="M56.1,142.2L56.1,142.2c-4.3,0-7.9-3.5-7.9-7.9l0,0c0-4.3,3.5-7.9,7.9-7.9l0,0c4.3,0,7.9,3.5,7.9,7.9l0,0
		C63.9,138.7,60.4,142.3,56.1,142.2z"/>
</g>
<g>
	<path class="st0" d="M82.1,142.3L82.1,142.3c-4.3,0-7.9-3.5-7.9-7.9l0,0c0-4.3,3.5-7.9,7.9-7.9l0,0c4.3,0,7.9,3.6,7.9,7.9l0,0
		C90,138.7,86.5,142.3,82.1,142.3z"/>
</g>
<g>
	<g>
		<path class="st0" d="M30,168L30,168c-4.3,0-7.9-3.5-7.9-7.9l0,0c0-4.3,3.5-7.9,7.9-7.9l0,0c4.3,0,7.9,3.5,7.9,7.9l0,0
			C37.9,164.5,34.3,168,30,168z"/>
	</g>
	<g>
		<path class="st0" d="M56.1,168.1L56.1,168.1c-4.3,0-7.9-3.5-7.9-7.9l0,0c0-4.3,3.5-7.9,7.9-7.9l0,0c4.3,0,7.9,3.5,7.9,7.9l0,0
			C63.9,164.5,60.4,168.1,56.1,168.1z"/>
	</g>
	<g>
		<path class="st0" d="M82.1,168.1L82.1,168.1c-4.3,0-7.9-3.5-7.9-7.9l0,0c0-4.3,3.5-7.9,7.9-7.9l0,0c4.3,0,7.9,3.5,7.9,7.9l0,0
			C90,164.5,86.5,168.1,82.1,168.1z"/>
	</g>
</g>
<g>
	<path class="st0" d="M108.2,116.5L108.2,116.5c-4.3,0-7.9-3.6-7.9-7.9l0,0c0-4.3,3.5-7.9,7.9-7.9l0,0c4.3,0,7.9,3.5,7.9,7.9l0,0
		C116.1,112.9,112.6,116.5,108.2,116.5z"/>
</g>
<path class="st0" d="M113.2,168.1l-11.1,0c-1.9,0-3.4-1.5-3.4-3.4l0-33.7c0-1.9,1.5-3.4,3.4-3.4l11.1,0c1.9,0,3.4,1.5,3.4,3.4
	l0,33.7C116.6,166.5,115.1,168.1,113.2,168.1z"/>
<path class="st1" d="M122.6,184.4H14c-7.7,0-14-6.3-14-14V14C0,6.3,6.3,0,14,0h108.6c7.7,0,14,6.3,14,14v156.4
	C136.6,178.1,130.3,184.4,122.6,184.4z M14,4C8.5,4,4,8.5,4,14v156.4c0,5.5,4.5,10,10,10h108.6c5.5,0,10-4.5,10-10V14
	c0-5.5-4.5-10-10-10H14z"/>
<path class="st2" d="M106.1,64.3H30.5c-7.5,0-13.6-6.1-13.6-13.7V36.8c0-7.6,6.1-13.7,13.6-13.7h75.7c7.5,0,13.6,6.1,13.6,13.7v13.8
	C119.8,58.1,113.7,64.3,106.1,64.3z M30.5,27.1c-5.3,0-9.6,4.4-9.6,9.7v13.8c0,5.3,4.3,9.7,9.6,9.7h75.7c5.3,0,9.6-4.4,9.6-9.7V36.8
	c0-5.3-4.3-9.7-9.6-9.7"/>
<g>
	<path class="st1" d="M33.8,37.9v4.8l-1.5,1.5l-0.5-0.5v-6.5L33.8,37.9z M33.8,46.2v5.3l-0.8,2c-0.7-0.2-1.1-0.6-1.3-1.3v-7l0.5-0.5
		L33.8,46.2z M40.6,37.4h-6.8l-2-0.8c0.2-0.7,0.6-1.1,1.3-1.3h8.3L40.6,37.4z M40.4,43.4l1,1l-1,1h-6.5l-1-1l1-1H40.4z"/>
	<path class="st1" d="M45.9,37.9v4.8l-1.5,1.5l-0.5-0.5v-6.5L45.9,37.9z M45.9,46.2v5.3l-0.8,2c-0.7-0.2-1.1-0.6-1.3-1.3v-7l0.5-0.5
		L45.9,46.2z M52,37.4h-6l-2-0.8c0.2-0.7,0.6-1.1,1.3-1.3h7.5L52,37.4z M52.5,43.4l1,1l-1,1h-6.5l-1-1l1-1H52.5z M46.4,45.9h1.5
		l6.5,6.5c-0.3,0.7-1,1-2,1l-6-6C46.4,47.5,46.4,45.9,46.4,45.9z M52.5,42.7v-5.3l0.8-2c0.7,0.2,1.1,0.6,1.3,1.3v7L54,44.2
		L52.5,42.7z"/>
	<path class="st1" d="M59,37.9v4.8l-1.5,1.5L57,43.7v-6.5L59,37.9z M57,51.7v-6.5l0.5-0.5l1.5,1.5V51L57,51.7z M66.5,53.5h-8.3
		c-0.7-0.2-1.1-0.6-1.3-1.3l2-0.8h6.8L66.5,53.5z M65.8,37.4H59l-2-0.8c0.2-0.7,0.6-1.1,1.3-1.3h8.3L65.8,37.4z M65.5,43.4l1,1l-1,1
		H59l-1-1l1-1H65.5z"/>
	<path class="st1" d="M71.1,37.9v4.8l-1.5,1.5l-0.5-0.5v-6.5L71.1,37.9z M69.1,51.7v-6.5l0.5-0.5l1.5,1.5V51L69.1,51.7z M78.6,53.5
		h-8.3c-0.7-0.2-1.1-0.6-1.3-1.3l2-0.8h6.8L78.6,53.5z M77.9,37.4h-6.8l-2-0.8c0.2-0.7,0.6-1.1,1.3-1.3h8.3L77.9,37.4z M77.6,43.4
		l1,1l-1,1h-6.5l-1-1l1-1H77.6z"/>
	<path class="st1" d="M81.6,44.2l-0.5-0.5v-7c0.2-0.7,0.6-1.1,1.3-1.3l0.8,2v5.3L81.6,44.2z M83.2,46.2v5.3l-0.8,2
		c-0.7-0.2-1.1-0.6-1.3-1.3v-7l0.5-0.5L83.2,46.2z M83.7,51.5h6l2,0.8c-0.2,0.7-0.6,1.1-1.3,1.3h-7.5L83.7,51.5z"/>
	<path class="st1" d="M94.7,44.2l-0.5-0.5v-5.8l1.3-1.3l0.8,0.8v5.3L94.7,44.2z M96.2,46.2v5.3l-0.8,0.8L94.2,51v-5.8l0.5-0.5
		L96.2,46.2z M102.3,37.4h-5.5l-1-1l1-1h5.5l1,1L102.3,37.4z M103.3,52.5l-1,1h-5.5l-1-1l1-1h5.5L103.3,52.5z M102.8,42.7v-5.3
		l0.8-0.8l1.3,1.3v5.8l-0.5,0.5L102.8,42.7z M104.3,44.7l0.5,0.5V51l-1.3,1.3l-0.8-0.8v-5.3L104.3,44.7z"/>
</g>
</svg>
