<?xml version="1.0" encoding="utf-8"?>
<!-- Generator: Adobe Illustrator 24.1.1, SVG Export Plug-In . SVG Version: 6.00 Build 0)  -->
<svg version="1.1" id="Capa_1" xmlns="http://www.w3.org/2000/svg" xmlns:xlink="http://www.w3.org/1999/xlink" x="0px" y="0px"
	 width="37.6px" height="50.1px" viewBox="0 0 37.6 50.1" style="enable-background:new 0 0 37.6 50.1;" xml:space="preserve">
<style type="text/css">
	.st0{fill:#00FFFF;}
	.st1{fill:#FF00E7;}
	.st2{fill:#FFFFFF;}
</style>
<g id="Background">
</g>
<path class="st0" d="M32.7,50.1H4.8c-2.6,0-4.8-2.2-4.8-4.8V4.8C0,2.2,2.2,0,4.8,0h27.9c2.6,0,4.8,2.2,4.8,4.8v40.4
	c0.1,1.3-0.4,2.5-1.3,3.4C35.3,49.6,34.1,50.1,32.7,50.1z M4.8,2C3.3,2,2,3.3,2,4.8v40.5c0,1.5,1.3,2.8,2.8,2.8h27.9
	c0.8,0,1.5-0.3,2.1-0.9c0.5-0.5,0.8-1.2,0.7-2l0-40.4c0-1.5-1.3-2.8-2.8-2.8H4.8z"/>
<path class="st1" d="M29.3,16h-21c-2,0-3.7-1.6-3.7-3.7V8.4c0-2,1.6-3.7,3.7-3.7h21c2,0,3.7,1.6,3.7,3.7v3.9
	C33,14.3,31.3,16,29.3,16z M8.3,6.7c-1,0-1.7,0.8-1.7,1.7v3.9c0,1,0.8,1.7,1.7,1.7h21c1,0,1.7-0.8,1.7-1.7V8.4c0-1-0.8-1.7-1.7-1.7
	H8.3z"/>
<g>
	<g>
		<path class="st2" d="M9,25.5L9,25.5c-1.6,0-2.9-1.3-2.9-2.9l0,0c0-1.6,1.3-2.9,2.9-2.9l0,0c1.6,0,2.9,1.3,2.9,2.9l0,0
			C11.9,24.1,10.6,25.5,9,25.5z"/>
	</g>
	<g>
		<path class="st2" d="M18.7,25.5L18.7,25.5c-1.6,0-2.9-1.3-2.9-2.9l0,0c0-1.6,1.3-2.9,2.9-2.9l0,0c1.6,0,2.9,1.3,2.9,2.9l0,0
			C21.6,24.1,20.3,25.5,18.7,25.5z"/>
	</g>
	<g>
		<path class="st2" d="M8.9,35.1L8.9,35.1c-1.6,0-2.9-1.3-2.9-2.9l0,0c0-1.6,1.3-2.9,2.9-2.9l0,0c1.6,0,2.9,1.3,2.9,2.9l0,0
			C11.9,33.8,10.6,35.1,8.9,35.1z"/>
	</g>
	<g>
		<path class="st2" d="M18.7,35.1L18.7,35.1c-1.6,0-2.9-1.3-2.9-2.9l0,0c0-1.6,1.3-2.9,2.9-2.9l0,0c1.6,0,2.9,1.3,2.9,2.9l0,0
			C21.6,33.8,20.3,35.1,18.7,35.1z"/>
	</g>
	<g>
		<path class="st2" d="M8.9,44.7L8.9,44.7c-1.6,0-2.9-1.3-2.9-2.9l0,0c0-1.6,1.3-2.9,2.9-2.9l0,0c1.6,0,2.9,1.3,2.9,2.9l0,0
			C11.9,43.4,10.6,44.7,8.9,44.7z"/>
	</g>
	<g>
		<path class="st2" d="M18.7,44.7L18.7,44.7c-1.6,0-2.9-1.3-2.9-2.9l0,0c0-1.6,1.3-2.9,2.9-2.9l0,0c1.6,0,2.9,1.3,2.9,2.9l0,0
			C21.6,43.4,20.3,44.7,18.7,44.7z"/>
	</g>
	<g>
		<path class="st2" d="M28.4,25.5L28.4,25.5c-1.6,0-2.9-1.3-2.9-2.9l0,0c0-1.6,1.3-2.9,2.9-2.9l0,0c1.6,0,2.9,1.3,2.9,2.9l0,0
			C31.4,24.1,30.1,25.5,28.4,25.5z"/>
	</g>
	<path class="st2" d="M30.3,44.7h-4.2c-0.7,0-1.3-0.6-1.3-1.3V30.8c0-0.7,0.6-1.3,1.3-1.3h4.2c0.7,0,1.3,0.6,1.3,1.3v12.6
		C31.6,44.2,31,44.7,30.3,44.7z"/>
</g>
</svg>
